<mxfile host="app.diagrams.net" agent="Mozilla/5.0 (Windows NT 10.0; Win64; x64) AppleWebKit/537.36 (KHTML, like Gecko) Chrome/131.0.0.0 Safari/537.36" version="25.0.3">
  <diagram name="Halaman-1" id="ynbBY-hdSyyd17gIShCS">
    <mxGraphModel dx="1750" dy="982" grid="1" gridSize="10" guides="1" tooltips="1" connect="1" arrows="1" fold="1" page="1" pageScale="1" pageWidth="827" pageHeight="1169" math="0" shadow="0">
      <root>
        <mxCell id="0" />
        <mxCell id="1" parent="0" />
        <mxCell id="-cX-4bhfsLtDlmVkrYTN-12" style="edgeStyle=orthogonalEdgeStyle;rounded=0;orthogonalLoop=1;jettySize=auto;html=1;exitX=0.5;exitY=1;exitDx=0;exitDy=0;entryX=0.5;entryY=1;entryDx=0;entryDy=0;endArrow=none;endFill=0;" parent="1" source="-cX-4bhfsLtDlmVkrYTN-1" target="-cX-4bhfsLtDlmVkrYTN-3" edge="1">
          <mxGeometry relative="1" as="geometry" />
        </mxCell>
        <mxCell id="-cX-4bhfsLtDlmVkrYTN-1" value="perdarahan" style="rounded=1;whiteSpace=wrap;html=1;" parent="1" vertex="1">
          <mxGeometry x="80" y="20" width="130" height="40" as="geometry" />
        </mxCell>
        <mxCell id="-cX-4bhfsLtDlmVkrYTN-11" style="edgeStyle=orthogonalEdgeStyle;rounded=0;orthogonalLoop=1;jettySize=auto;html=1;exitX=0.5;exitY=1;exitDx=0;exitDy=0;" parent="1" source="-cX-4bhfsLtDlmVkrYTN-2" edge="1">
          <mxGeometry relative="1" as="geometry">
            <mxPoint x="414" y="160" as="targetPoint" />
          </mxGeometry>
        </mxCell>
        <mxCell id="-cX-4bhfsLtDlmVkrYTN-2" value="kerusakan SDM" style="rounded=1;whiteSpace=wrap;html=1;" parent="1" vertex="1">
          <mxGeometry x="349" y="20" width="130" height="40" as="geometry" />
        </mxCell>
        <mxCell id="-cX-4bhfsLtDlmVkrYTN-3" value="produksi SDM tdk ckp bnyk" style="rounded=1;whiteSpace=wrap;html=1;" parent="1" vertex="1">
          <mxGeometry x="620" y="20" width="130" height="40" as="geometry" />
        </mxCell>
        <mxCell id="QeBe39FFl0Oe00fRiQWJ-2" style="edgeStyle=orthogonalEdgeStyle;rounded=0;orthogonalLoop=1;jettySize=auto;html=1;exitX=0.5;exitY=1;exitDx=0;exitDy=0;" edge="1" parent="1" source="QeBe39FFl0Oe00fRiQWJ-3">
          <mxGeometry relative="1" as="geometry">
            <mxPoint x="414" y="290" as="targetPoint" />
          </mxGeometry>
        </mxCell>
        <mxCell id="QeBe39FFl0Oe00fRiQWJ-1" value="SDM berlebihan" style="rounded=1;whiteSpace=wrap;html=1;" vertex="1" parent="1">
          <mxGeometry x="349" y="130" width="130" height="40" as="geometry" />
        </mxCell>
        <mxCell id="QeBe39FFl0Oe00fRiQWJ-4" value="" style="edgeStyle=orthogonalEdgeStyle;rounded=0;orthogonalLoop=1;jettySize=auto;html=1;exitX=0.5;exitY=1;exitDx=0;exitDy=0;" edge="1" parent="1" source="QeBe39FFl0Oe00fRiQWJ-1" target="QeBe39FFl0Oe00fRiQWJ-3">
          <mxGeometry relative="1" as="geometry">
            <mxPoint x="414" y="290" as="targetPoint" />
            <mxPoint x="414" y="170" as="sourcePoint" />
          </mxGeometry>
        </mxCell>
        <mxCell id="QeBe39FFl0Oe00fRiQWJ-3" value="Kadar Hb" style="rounded=1;whiteSpace=wrap;html=1;" vertex="1" parent="1">
          <mxGeometry x="349" y="210" width="130" height="40" as="geometry" />
        </mxCell>
        <mxCell id="QeBe39FFl0Oe00fRiQWJ-6" style="edgeStyle=orthogonalEdgeStyle;rounded=0;orthogonalLoop=1;jettySize=auto;html=1;exitX=0.5;exitY=1;exitDx=0;exitDy=0;" edge="1" parent="1" source="QeBe39FFl0Oe00fRiQWJ-5">
          <mxGeometry relative="1" as="geometry">
            <mxPoint x="414" y="420" as="targetPoint" />
          </mxGeometry>
        </mxCell>
        <mxCell id="QeBe39FFl0Oe00fRiQWJ-7" style="edgeStyle=orthogonalEdgeStyle;rounded=0;orthogonalLoop=1;jettySize=auto;html=1;exitX=0;exitY=0.5;exitDx=0;exitDy=0;" edge="1" parent="1" source="QeBe39FFl0Oe00fRiQWJ-5">
          <mxGeometry relative="1" as="geometry">
            <mxPoint x="140" y="420" as="targetPoint" />
          </mxGeometry>
        </mxCell>
        <mxCell id="QeBe39FFl0Oe00fRiQWJ-8" style="edgeStyle=orthogonalEdgeStyle;rounded=0;orthogonalLoop=1;jettySize=auto;html=1;exitX=1;exitY=0.5;exitDx=0;exitDy=0;" edge="1" parent="1" source="QeBe39FFl0Oe00fRiQWJ-5">
          <mxGeometry relative="1" as="geometry">
            <mxPoint x="680" y="420" as="targetPoint" />
          </mxGeometry>
        </mxCell>
        <mxCell id="QeBe39FFl0Oe00fRiQWJ-5" value="&lt;b&gt;&lt;font style=&quot;font-size: 20px;&quot;&gt;ANEMIA&lt;/font&gt;&lt;/b&gt;" style="rounded=1;whiteSpace=wrap;html=1;" vertex="1" parent="1">
          <mxGeometry x="339.5" y="274.15" width="149" height="45.85" as="geometry" />
        </mxCell>
        <mxCell id="QeBe39FFl0Oe00fRiQWJ-9" value="hipoksia" style="rounded=1;whiteSpace=wrap;html=1;" vertex="1" parent="1">
          <mxGeometry x="354" y="350" width="119" height="30" as="geometry" />
        </mxCell>
        <mxCell id="QeBe39FFl0Oe00fRiQWJ-10" value="produksi SDM oleh sumsum tulang" style="rounded=1;whiteSpace=wrap;html=1;" vertex="1" parent="1">
          <mxGeometry x="610" y="320" width="130" height="40" as="geometry" />
        </mxCell>
        <mxCell id="QeBe39FFl0Oe00fRiQWJ-14" value="Peningkatan O&lt;font style=&quot;font-size: 9px;&quot;&gt;2&lt;/font&gt;&lt;font style=&quot;font-size: 11px;&quot;&gt;&amp;nbsp;oleh RBC&lt;/font&gt;&lt;font&gt;&lt;font style=&quot;&quot;&gt;&amp;nbsp;&lt;/font&gt;&lt;/font&gt;" style="rounded=1;whiteSpace=wrap;html=1;" vertex="1" parent="1">
          <mxGeometry x="80" y="320" width="130" height="40" as="geometry" />
        </mxCell>
        <mxCell id="QeBe39FFl0Oe00fRiQWJ-31" style="edgeStyle=orthogonalEdgeStyle;rounded=0;orthogonalLoop=1;jettySize=auto;html=1;exitX=0;exitY=0.5;exitDx=0;exitDy=0;entryX=0.5;entryY=0;entryDx=0;entryDy=0;" edge="1" parent="1" source="QeBe39FFl0Oe00fRiQWJ-15" target="QeBe39FFl0Oe00fRiQWJ-28">
          <mxGeometry relative="1" as="geometry" />
        </mxCell>
        <mxCell id="QeBe39FFl0Oe00fRiQWJ-15" value="suplai O2/ Na ke jaringan" style="rounded=1;whiteSpace=wrap;html=1;" vertex="1" parent="1">
          <mxGeometry x="361" y="420" width="106" height="40" as="geometry" />
        </mxCell>
        <mxCell id="QeBe39FFl0Oe00fRiQWJ-27" style="edgeStyle=orthogonalEdgeStyle;rounded=0;orthogonalLoop=1;jettySize=auto;html=1;exitX=0.5;exitY=1;exitDx=0;exitDy=0;entryX=0.5;entryY=0;entryDx=0;entryDy=0;" edge="1" parent="1" source="QeBe39FFl0Oe00fRiQWJ-16" target="QeBe39FFl0Oe00fRiQWJ-26">
          <mxGeometry relative="1" as="geometry" />
        </mxCell>
        <mxCell id="QeBe39FFl0Oe00fRiQWJ-16" value="aliran darah ke organ vital &amp;amp; jar" style="rounded=1;whiteSpace=wrap;html=1;" vertex="1" parent="1">
          <mxGeometry x="75" y="380" width="130" height="40" as="geometry" />
        </mxCell>
        <mxCell id="QeBe39FFl0Oe00fRiQWJ-17" value="Kompensasi sumsum tulang memproduksi SDM" style="rounded=1;whiteSpace=wrap;html=1;" vertex="1" parent="1">
          <mxGeometry x="615" y="420" width="130" height="40" as="geometry" />
        </mxCell>
        <mxCell id="QeBe39FFl0Oe00fRiQWJ-18" value="kerusakan sumsum tulang" style="rounded=1;whiteSpace=wrap;html=1;" vertex="1" parent="1">
          <mxGeometry x="614" y="480" width="130" height="40" as="geometry" />
        </mxCell>
        <mxCell id="QeBe39FFl0Oe00fRiQWJ-25" style="edgeStyle=orthogonalEdgeStyle;rounded=0;orthogonalLoop=1;jettySize=auto;html=1;exitX=0.5;exitY=1;exitDx=0;exitDy=0;entryX=0.508;entryY=-0.043;entryDx=0;entryDy=0;entryPerimeter=0;" edge="1" parent="1" source="QeBe39FFl0Oe00fRiQWJ-17" target="QeBe39FFl0Oe00fRiQWJ-18">
          <mxGeometry relative="1" as="geometry" />
        </mxCell>
        <mxCell id="QeBe39FFl0Oe00fRiQWJ-109" style="edgeStyle=orthogonalEdgeStyle;rounded=0;orthogonalLoop=1;jettySize=auto;html=1;exitX=0.5;exitY=1;exitDx=0;exitDy=0;entryX=0.5;entryY=0;entryDx=0;entryDy=0;" edge="1" parent="1" source="QeBe39FFl0Oe00fRiQWJ-26" target="QeBe39FFl0Oe00fRiQWJ-107">
          <mxGeometry relative="1" as="geometry" />
        </mxCell>
        <mxCell id="QeBe39FFl0Oe00fRiQWJ-26" value="O&lt;font style=&quot;font-size: 9px;&quot;&gt;2&lt;/font&gt; &amp;amp; nutrisi tdk di transport scr akurat" style="rounded=1;whiteSpace=wrap;html=1;" vertex="1" parent="1">
          <mxGeometry x="75" y="440" width="130" height="40" as="geometry" />
        </mxCell>
        <mxCell id="QeBe39FFl0Oe00fRiQWJ-34" style="edgeStyle=orthogonalEdgeStyle;rounded=0;orthogonalLoop=1;jettySize=auto;html=1;exitX=0.5;exitY=1;exitDx=0;exitDy=0;entryX=0.5;entryY=0;entryDx=0;entryDy=0;" edge="1" parent="1" source="QeBe39FFl0Oe00fRiQWJ-28" target="QeBe39FFl0Oe00fRiQWJ-32">
          <mxGeometry relative="1" as="geometry" />
        </mxCell>
        <mxCell id="QeBe39FFl0Oe00fRiQWJ-28" value="pengiriman" style="rounded=1;whiteSpace=wrap;html=1;" vertex="1" parent="1">
          <mxGeometry x="270" y="480" width="106" height="40" as="geometry" />
        </mxCell>
        <mxCell id="QeBe39FFl0Oe00fRiQWJ-29" value="pengiriman nutrisi terganggu" style="rounded=1;whiteSpace=wrap;html=1;" vertex="1" parent="1">
          <mxGeometry x="453" y="480" width="106" height="40" as="geometry" />
        </mxCell>
        <mxCell id="QeBe39FFl0Oe00fRiQWJ-30" style="edgeStyle=orthogonalEdgeStyle;rounded=0;orthogonalLoop=1;jettySize=auto;html=1;exitX=1;exitY=0.5;exitDx=0;exitDy=0;entryX=0.5;entryY=0;entryDx=0;entryDy=0;" edge="1" parent="1" source="QeBe39FFl0Oe00fRiQWJ-15" target="QeBe39FFl0Oe00fRiQWJ-29">
          <mxGeometry relative="1" as="geometry">
            <mxPoint x="510" y="460" as="targetPoint" />
          </mxGeometry>
        </mxCell>
        <mxCell id="QeBe39FFl0Oe00fRiQWJ-37" style="edgeStyle=orthogonalEdgeStyle;rounded=0;orthogonalLoop=1;jettySize=auto;html=1;exitX=0.5;exitY=1;exitDx=0;exitDy=0;entryX=0.5;entryY=0;entryDx=0;entryDy=0;" edge="1" parent="1" source="QeBe39FFl0Oe00fRiQWJ-32" target="QeBe39FFl0Oe00fRiQWJ-36">
          <mxGeometry relative="1" as="geometry">
            <mxPoint x="322.7241379310344" y="660" as="targetPoint" />
          </mxGeometry>
        </mxCell>
        <mxCell id="QeBe39FFl0Oe00fRiQWJ-32" value="perubahan pembentukan ATP" style="rounded=1;whiteSpace=wrap;html=1;" vertex="1" parent="1">
          <mxGeometry x="270" y="550" width="106" height="40" as="geometry" />
        </mxCell>
        <mxCell id="QeBe39FFl0Oe00fRiQWJ-38" style="edgeStyle=orthogonalEdgeStyle;rounded=0;orthogonalLoop=1;jettySize=auto;html=1;exitX=0.5;exitY=1;exitDx=0;exitDy=0;entryX=0.5;entryY=0;entryDx=0;entryDy=0;" edge="1" parent="1" source="QeBe39FFl0Oe00fRiQWJ-33" target="QeBe39FFl0Oe00fRiQWJ-36">
          <mxGeometry relative="1" as="geometry" />
        </mxCell>
        <mxCell id="QeBe39FFl0Oe00fRiQWJ-60" style="edgeStyle=orthogonalEdgeStyle;rounded=0;orthogonalLoop=1;jettySize=auto;html=1;exitX=1;exitY=0.5;exitDx=0;exitDy=0;endArrow=none;endFill=0;" edge="1" parent="1" source="QeBe39FFl0Oe00fRiQWJ-33">
          <mxGeometry relative="1" as="geometry">
            <mxPoint x="660" y="950" as="targetPoint" />
          </mxGeometry>
        </mxCell>
        <mxCell id="QeBe39FFl0Oe00fRiQWJ-33" value="Defisiensi nutrisi" style="rounded=1;whiteSpace=wrap;html=1;" vertex="1" parent="1">
          <mxGeometry x="460" y="550" width="106" height="40" as="geometry" />
        </mxCell>
        <mxCell id="QeBe39FFl0Oe00fRiQWJ-35" style="edgeStyle=orthogonalEdgeStyle;rounded=0;orthogonalLoop=1;jettySize=auto;html=1;exitX=0.5;exitY=1;exitDx=0;exitDy=0;entryX=0.5;entryY=0;entryDx=0;entryDy=0;" edge="1" parent="1" source="QeBe39FFl0Oe00fRiQWJ-29" target="QeBe39FFl0Oe00fRiQWJ-33">
          <mxGeometry relative="1" as="geometry" />
        </mxCell>
        <mxCell id="QeBe39FFl0Oe00fRiQWJ-40" style="edgeStyle=orthogonalEdgeStyle;rounded=0;orthogonalLoop=1;jettySize=auto;html=1;exitX=0.5;exitY=1;exitDx=0;exitDy=0;entryX=0.5;entryY=0;entryDx=0;entryDy=0;" edge="1" parent="1" source="QeBe39FFl0Oe00fRiQWJ-36" target="QeBe39FFl0Oe00fRiQWJ-39">
          <mxGeometry relative="1" as="geometry" />
        </mxCell>
        <mxCell id="QeBe39FFl0Oe00fRiQWJ-36" value="energy yg dihasilkan" style="rounded=1;whiteSpace=wrap;html=1;" vertex="1" parent="1">
          <mxGeometry x="367" y="680" width="106" height="40" as="geometry" />
        </mxCell>
        <mxCell id="QeBe39FFl0Oe00fRiQWJ-44" style="edgeStyle=orthogonalEdgeStyle;rounded=0;orthogonalLoop=1;jettySize=auto;html=1;exitX=0.25;exitY=1;exitDx=0;exitDy=0;endArrow=none;endFill=0;" edge="1" parent="1" source="QeBe39FFl0Oe00fRiQWJ-39">
          <mxGeometry relative="1" as="geometry">
            <mxPoint x="394" y="940" as="targetPoint" />
            <Array as="points">
              <mxPoint x="393" y="855" />
              <mxPoint x="394" y="855" />
            </Array>
          </mxGeometry>
        </mxCell>
        <mxCell id="QeBe39FFl0Oe00fRiQWJ-39" value="kelemahan fisik" style="rounded=1;whiteSpace=wrap;html=1;" vertex="1" parent="1">
          <mxGeometry x="367" y="730" width="106" height="40" as="geometry" />
        </mxCell>
        <mxCell id="QeBe39FFl0Oe00fRiQWJ-47" style="edgeStyle=orthogonalEdgeStyle;rounded=0;orthogonalLoop=1;jettySize=auto;html=1;exitX=0;exitY=0.5;exitDx=0;exitDy=0;endArrow=none;endFill=0;" edge="1" parent="1">
          <mxGeometry relative="1" as="geometry">
            <mxPoint x="394" y="820" as="targetPoint" />
            <mxPoint x="408" y="820" as="sourcePoint" />
          </mxGeometry>
        </mxCell>
        <mxCell id="QeBe39FFl0Oe00fRiQWJ-41" value="cepat lelah" style="rounded=1;whiteSpace=wrap;html=1;" vertex="1" parent="1">
          <mxGeometry x="408" y="810" width="80" height="20" as="geometry" />
        </mxCell>
        <mxCell id="QeBe39FFl0Oe00fRiQWJ-52" style="edgeStyle=orthogonalEdgeStyle;rounded=0;orthogonalLoop=1;jettySize=auto;html=1;exitX=0;exitY=0.5;exitDx=0;exitDy=0;endArrow=none;endFill=0;" edge="1" parent="1">
          <mxGeometry relative="1" as="geometry">
            <mxPoint x="394" y="940" as="targetPoint" />
            <mxPoint x="408" y="940" as="sourcePoint" />
          </mxGeometry>
        </mxCell>
        <mxCell id="QeBe39FFl0Oe00fRiQWJ-53" value="pusing" style="rounded=1;whiteSpace=wrap;html=1;" vertex="1" parent="1">
          <mxGeometry x="408" y="930" width="80" height="20" as="geometry" />
        </mxCell>
        <mxCell id="QeBe39FFl0Oe00fRiQWJ-58" value="" style="shape=flexArrow;endArrow=classic;html=1;rounded=0;" edge="1" parent="1">
          <mxGeometry width="50" height="50" relative="1" as="geometry">
            <mxPoint x="453" y="980" as="sourcePoint" />
            <mxPoint x="454" y="1030" as="targetPoint" />
          </mxGeometry>
        </mxCell>
        <mxCell id="QeBe39FFl0Oe00fRiQWJ-59" value="&lt;b&gt;MK: Interlasi aktivitas&lt;/b&gt;" style="rounded=1;whiteSpace=wrap;html=1;" vertex="1" parent="1">
          <mxGeometry x="400" y="1050" width="112" height="40" as="geometry" />
        </mxCell>
        <mxCell id="QeBe39FFl0Oe00fRiQWJ-61" value="" style="group" vertex="1" connectable="0" parent="1">
          <mxGeometry x="394" y="870" width="94" height="20" as="geometry" />
        </mxCell>
        <mxCell id="QeBe39FFl0Oe00fRiQWJ-50" style="edgeStyle=orthogonalEdgeStyle;rounded=0;orthogonalLoop=1;jettySize=auto;html=1;exitX=0;exitY=0.5;exitDx=0;exitDy=0;endArrow=none;endFill=0;" edge="1" parent="QeBe39FFl0Oe00fRiQWJ-61">
          <mxGeometry relative="1" as="geometry">
            <mxPoint y="10" as="targetPoint" />
            <mxPoint x="14" y="10" as="sourcePoint" />
          </mxGeometry>
        </mxCell>
        <mxCell id="QeBe39FFl0Oe00fRiQWJ-51" value="lemas" style="rounded=1;whiteSpace=wrap;html=1;" vertex="1" parent="QeBe39FFl0Oe00fRiQWJ-61">
          <mxGeometry x="14" width="80" height="20" as="geometry" />
        </mxCell>
        <mxCell id="QeBe39FFl0Oe00fRiQWJ-81" value="" style="shape=flexArrow;endArrow=classic;html=1;rounded=0;" edge="1" parent="1">
          <mxGeometry width="50" height="50" relative="1" as="geometry">
            <mxPoint x="643" y="980" as="sourcePoint" />
            <mxPoint x="644" y="1030" as="targetPoint" />
          </mxGeometry>
        </mxCell>
        <mxCell id="QeBe39FFl0Oe00fRiQWJ-82" value="&lt;b&gt;&lt;font style=&quot;font-size: 11px;&quot;&gt;MK: perubahan nutrisi kurang dari kebutuhan tubuh&lt;/font&gt;&lt;/b&gt;" style="rounded=1;whiteSpace=wrap;html=1;" vertex="1" parent="1">
          <mxGeometry x="590" y="1040" width="120" height="50" as="geometry" />
        </mxCell>
        <mxCell id="QeBe39FFl0Oe00fRiQWJ-83" value="" style="shape=flexArrow;endArrow=classic;html=1;rounded=0;" edge="1" parent="1">
          <mxGeometry width="50" height="50" relative="1" as="geometry">
            <mxPoint x="139.76" y="560" as="sourcePoint" />
            <mxPoint x="140" y="620" as="targetPoint" />
          </mxGeometry>
        </mxCell>
        <mxCell id="QeBe39FFl0Oe00fRiQWJ-85" value="&lt;b&gt;MK Gangguan perfusi jaringan&lt;/b&gt;" style="rounded=1;whiteSpace=wrap;html=1;" vertex="1" parent="1">
          <mxGeometry x="75" y="640" width="130" height="40" as="geometry" />
        </mxCell>
        <mxCell id="QeBe39FFl0Oe00fRiQWJ-89" style="edgeStyle=orthogonalEdgeStyle;rounded=0;orthogonalLoop=1;jettySize=auto;html=1;exitX=0.5;exitY=1;exitDx=0;exitDy=0;entryX=0.5;entryY=0;entryDx=0;entryDy=0;endArrow=none;endFill=0;" edge="1" parent="1" source="QeBe39FFl0Oe00fRiQWJ-86" target="QeBe39FFl0Oe00fRiQWJ-88">
          <mxGeometry relative="1" as="geometry" />
        </mxCell>
        <mxCell id="QeBe39FFl0Oe00fRiQWJ-90" style="edgeStyle=orthogonalEdgeStyle;rounded=0;orthogonalLoop=1;jettySize=auto;html=1;exitX=0.5;exitY=1;exitDx=0;exitDy=0;entryX=0.5;entryY=0;entryDx=0;entryDy=0;endArrow=none;endFill=0;" edge="1" parent="1" source="QeBe39FFl0Oe00fRiQWJ-86" target="QeBe39FFl0Oe00fRiQWJ-87">
          <mxGeometry relative="1" as="geometry" />
        </mxCell>
        <mxCell id="QeBe39FFl0Oe00fRiQWJ-86" value="sirkulasi O&lt;font style=&quot;font-size: 9px;&quot;&gt;2&lt;/font&gt; terganggu" style="rounded=1;whiteSpace=wrap;html=1;" vertex="1" parent="1">
          <mxGeometry x="75" y="750" width="130" height="40" as="geometry" />
        </mxCell>
        <mxCell id="QeBe39FFl0Oe00fRiQWJ-92" style="edgeStyle=orthogonalEdgeStyle;rounded=0;orthogonalLoop=1;jettySize=auto;html=1;exitX=1;exitY=0.5;exitDx=0;exitDy=0;entryX=1;entryY=0.5;entryDx=0;entryDy=0;endArrow=none;endFill=0;" edge="1" parent="1" source="QeBe39FFl0Oe00fRiQWJ-87" target="QeBe39FFl0Oe00fRiQWJ-91">
          <mxGeometry relative="1" as="geometry" />
        </mxCell>
        <mxCell id="QeBe39FFl0Oe00fRiQWJ-94" style="edgeStyle=orthogonalEdgeStyle;rounded=0;orthogonalLoop=1;jettySize=auto;html=1;exitX=1;exitY=0.5;exitDx=0;exitDy=0;entryX=1;entryY=0.5;entryDx=0;entryDy=0;endArrow=none;endFill=0;" edge="1" parent="1" source="QeBe39FFl0Oe00fRiQWJ-87" target="QeBe39FFl0Oe00fRiQWJ-93">
          <mxGeometry relative="1" as="geometry" />
        </mxCell>
        <mxCell id="QeBe39FFl0Oe00fRiQWJ-87" value="pola nafas terganggu" style="rounded=1;whiteSpace=wrap;html=1;" vertex="1" parent="1">
          <mxGeometry x="160" y="840" width="97.5" height="40" as="geometry" />
        </mxCell>
        <mxCell id="QeBe39FFl0Oe00fRiQWJ-103" style="edgeStyle=orthogonalEdgeStyle;rounded=0;orthogonalLoop=1;jettySize=auto;html=1;exitX=0;exitY=0.5;exitDx=0;exitDy=0;entryX=0;entryY=0.5;entryDx=0;entryDy=0;endArrow=none;endFill=0;" edge="1" parent="1" source="QeBe39FFl0Oe00fRiQWJ-88" target="QeBe39FFl0Oe00fRiQWJ-95">
          <mxGeometry relative="1" as="geometry" />
        </mxCell>
        <mxCell id="QeBe39FFl0Oe00fRiQWJ-104" style="edgeStyle=orthogonalEdgeStyle;rounded=0;orthogonalLoop=1;jettySize=auto;html=1;exitX=0;exitY=0.5;exitDx=0;exitDy=0;entryX=0;entryY=0.5;entryDx=0;entryDy=0;entryPerimeter=0;endArrow=none;endFill=0;" edge="1" parent="1" source="QeBe39FFl0Oe00fRiQWJ-88" target="QeBe39FFl0Oe00fRiQWJ-100">
          <mxGeometry relative="1" as="geometry" />
        </mxCell>
        <mxCell id="QeBe39FFl0Oe00fRiQWJ-105" style="edgeStyle=orthogonalEdgeStyle;rounded=0;orthogonalLoop=1;jettySize=auto;html=1;exitX=0;exitY=0.5;exitDx=0;exitDy=0;entryX=0;entryY=0.5;entryDx=0;entryDy=0;endArrow=none;endFill=0;" edge="1" parent="1" source="QeBe39FFl0Oe00fRiQWJ-88" target="QeBe39FFl0Oe00fRiQWJ-101">
          <mxGeometry relative="1" as="geometry" />
        </mxCell>
        <mxCell id="QeBe39FFl0Oe00fRiQWJ-106" style="edgeStyle=orthogonalEdgeStyle;rounded=0;orthogonalLoop=1;jettySize=auto;html=1;exitX=0;exitY=0.5;exitDx=0;exitDy=0;entryX=0;entryY=0.5;entryDx=0;entryDy=0;endArrow=none;endFill=0;" edge="1" parent="1" source="QeBe39FFl0Oe00fRiQWJ-88" target="QeBe39FFl0Oe00fRiQWJ-102">
          <mxGeometry relative="1" as="geometry" />
        </mxCell>
        <mxCell id="QeBe39FFl0Oe00fRiQWJ-88" value="sirkulasi darah ke perifer tidak mencukupi" style="rounded=1;whiteSpace=wrap;html=1;" vertex="1" parent="1">
          <mxGeometry x="40" y="840" width="97.5" height="50" as="geometry" />
        </mxCell>
        <mxCell id="QeBe39FFl0Oe00fRiQWJ-91" value="dispneu" style="rounded=1;whiteSpace=wrap;html=1;" vertex="1" parent="1">
          <mxGeometry x="200" y="920" width="70" height="28.72" as="geometry" />
        </mxCell>
        <mxCell id="QeBe39FFl0Oe00fRiQWJ-93" value="nafas pendek" style="rounded=1;whiteSpace=wrap;html=1;" vertex="1" parent="1">
          <mxGeometry x="170" y="980" width="100" height="30" as="geometry" />
        </mxCell>
        <mxCell id="QeBe39FFl0Oe00fRiQWJ-95" value="pucat" style="rounded=1;whiteSpace=wrap;html=1;" vertex="1" parent="1">
          <mxGeometry x="40" y="925.64" width="70" height="28.72" as="geometry" />
        </mxCell>
        <mxCell id="QeBe39FFl0Oe00fRiQWJ-100" value="sianosis" style="rounded=1;whiteSpace=wrap;html=1;" vertex="1" parent="1">
          <mxGeometry x="40" y="980" width="70" height="28.72" as="geometry" />
        </mxCell>
        <mxCell id="QeBe39FFl0Oe00fRiQWJ-101" value="perifer dingin" style="rounded=1;whiteSpace=wrap;html=1;" vertex="1" parent="1">
          <mxGeometry x="40" y="1040" width="110" height="28.72" as="geometry" />
        </mxCell>
        <mxCell id="QeBe39FFl0Oe00fRiQWJ-102" value="Kapilaveril lambat" style="rounded=1;whiteSpace=wrap;html=1;" vertex="1" parent="1">
          <mxGeometry x="40" y="1100" width="90" height="40" as="geometry" />
        </mxCell>
        <mxCell id="QeBe39FFl0Oe00fRiQWJ-108" style="edgeStyle=orthogonalEdgeStyle;rounded=0;orthogonalLoop=1;jettySize=auto;html=1;exitX=0;exitY=0.5;exitDx=0;exitDy=0;entryX=0;entryY=0.5;entryDx=0;entryDy=0;" edge="1" parent="1" source="QeBe39FFl0Oe00fRiQWJ-107" target="QeBe39FFl0Oe00fRiQWJ-86">
          <mxGeometry relative="1" as="geometry" />
        </mxCell>
        <mxCell id="QeBe39FFl0Oe00fRiQWJ-107" value="perfusi jaringan terganggu" style="rounded=1;whiteSpace=wrap;html=1;" vertex="1" parent="1">
          <mxGeometry x="75" y="500" width="130" height="40" as="geometry" />
        </mxCell>
        <mxCell id="QeBe39FFl0Oe00fRiQWJ-110" value="" style="shape=flexArrow;endArrow=classic;html=1;rounded=0;" edge="1" parent="1">
          <mxGeometry width="50" height="50" relative="1" as="geometry">
            <mxPoint x="243" y="1030" as="sourcePoint" />
            <mxPoint x="244" y="1080" as="targetPoint" />
          </mxGeometry>
        </mxCell>
        <mxCell id="QeBe39FFl0Oe00fRiQWJ-111" value="&lt;b&gt;MK: pola nafas tidak efektif&lt;/b&gt;" style="rounded=1;whiteSpace=wrap;html=1;" vertex="1" parent="1">
          <mxGeometry x="190" y="1100" width="112" height="40" as="geometry" />
        </mxCell>
        <mxCell id="QeBe39FFl0Oe00fRiQWJ-63" style="edgeStyle=orthogonalEdgeStyle;rounded=0;orthogonalLoop=1;jettySize=auto;html=1;exitX=0;exitY=0.5;exitDx=0;exitDy=0;endArrow=none;endFill=0;" edge="1" parent="1">
          <mxGeometry relative="1" as="geometry">
            <mxPoint x="660" y="670" as="targetPoint" />
            <mxPoint x="646" y="670" as="sourcePoint" />
          </mxGeometry>
        </mxCell>
        <mxCell id="QeBe39FFl0Oe00fRiQWJ-64" value="nausea" style="rounded=1;whiteSpace=wrap;html=1;rotation=0;" vertex="1" parent="1">
          <mxGeometry x="566" y="660" width="80" height="20" as="geometry" />
        </mxCell>
        <mxCell id="QeBe39FFl0Oe00fRiQWJ-66" style="edgeStyle=orthogonalEdgeStyle;rounded=0;orthogonalLoop=1;jettySize=auto;html=1;exitX=0;exitY=0.5;exitDx=0;exitDy=0;endArrow=none;endFill=0;" edge="1" parent="1">
          <mxGeometry relative="1" as="geometry">
            <mxPoint x="660" y="730" as="targetPoint" />
            <mxPoint x="646" y="730" as="sourcePoint" />
          </mxGeometry>
        </mxCell>
        <mxCell id="QeBe39FFl0Oe00fRiQWJ-67" value="anoreksia" style="rounded=1;whiteSpace=wrap;html=1;rotation=0;" vertex="1" parent="1">
          <mxGeometry x="566" y="720" width="80" height="20" as="geometry" />
        </mxCell>
        <mxCell id="QeBe39FFl0Oe00fRiQWJ-69" style="edgeStyle=orthogonalEdgeStyle;rounded=0;orthogonalLoop=1;jettySize=auto;html=1;exitX=0;exitY=0.5;exitDx=0;exitDy=0;endArrow=none;endFill=0;" edge="1" parent="1">
          <mxGeometry relative="1" as="geometry">
            <mxPoint x="660" y="780" as="targetPoint" />
            <mxPoint x="646" y="780" as="sourcePoint" />
          </mxGeometry>
        </mxCell>
        <mxCell id="QeBe39FFl0Oe00fRiQWJ-70" value="BB" style="rounded=1;whiteSpace=wrap;html=1;rotation=0;" vertex="1" parent="1">
          <mxGeometry x="566" y="770" width="80" height="20" as="geometry" />
        </mxCell>
        <mxCell id="QeBe39FFl0Oe00fRiQWJ-72" style="edgeStyle=orthogonalEdgeStyle;rounded=0;orthogonalLoop=1;jettySize=auto;html=1;exitX=0;exitY=0.5;exitDx=0;exitDy=0;endArrow=none;endFill=0;" edge="1" parent="1">
          <mxGeometry relative="1" as="geometry">
            <mxPoint x="660" y="840" as="targetPoint" />
            <mxPoint x="646" y="840" as="sourcePoint" />
          </mxGeometry>
        </mxCell>
        <mxCell id="QeBe39FFl0Oe00fRiQWJ-73" value="&lt;font style=&quot;font-size: 10px;&quot;&gt;turgor kulit jelek&lt;/font&gt;" style="rounded=1;whiteSpace=wrap;html=1;rotation=0;" vertex="1" parent="1">
          <mxGeometry x="566" y="830" width="80" height="20" as="geometry" />
        </mxCell>
        <mxCell id="QeBe39FFl0Oe00fRiQWJ-76" style="edgeStyle=orthogonalEdgeStyle;rounded=0;orthogonalLoop=1;jettySize=auto;html=1;exitX=0;exitY=0.5;exitDx=0;exitDy=0;endArrow=none;endFill=0;" edge="1" parent="1">
          <mxGeometry relative="1" as="geometry">
            <mxPoint x="660" y="890" as="targetPoint" />
            <mxPoint x="646" y="890" as="sourcePoint" />
          </mxGeometry>
        </mxCell>
        <mxCell id="QeBe39FFl0Oe00fRiQWJ-77" value="&lt;font style=&quot;font-size: 8px;&quot;&gt;mukosa mulut kering&lt;/font&gt;" style="rounded=1;whiteSpace=wrap;html=1;rotation=0;" vertex="1" parent="1">
          <mxGeometry x="566" y="880" width="80" height="20" as="geometry" />
        </mxCell>
        <mxCell id="QeBe39FFl0Oe00fRiQWJ-79" style="edgeStyle=orthogonalEdgeStyle;rounded=0;orthogonalLoop=1;jettySize=auto;html=1;exitX=0;exitY=0.5;exitDx=0;exitDy=0;endArrow=none;endFill=0;" edge="1" parent="1">
          <mxGeometry relative="1" as="geometry">
            <mxPoint x="660" y="950" as="targetPoint" />
            <mxPoint x="646" y="950" as="sourcePoint" />
          </mxGeometry>
        </mxCell>
        <mxCell id="QeBe39FFl0Oe00fRiQWJ-80" value="&lt;font style=&quot;font-size: 8px;&quot;&gt;konjungtiva anemis&lt;/font&gt;" style="rounded=1;whiteSpace=wrap;html=1;rotation=0;" vertex="1" parent="1">
          <mxGeometry x="566" y="940" width="80" height="20" as="geometry" />
        </mxCell>
      </root>
    </mxGraphModel>
  </diagram>
</mxfile>
